Coordinates
version=1
nRows=34
nColumns=33
inDegrees=yes

Units are S.I. units (second, meters, Newtons, ...)
Angles are in degrees.

endheader
time	ground_thorax_rot_x	ground_thorax_rot_y	ground_thorax_rot_z	ground_thorax_tx	ground_thorax_ty	ground_thorax_tz	clav_prot_r	clav_elev_r	scapula_abduction_r	scapula_elevation_r	scapula_upward_rot_r	scapula_winging_r	shoulder_elv_r	plane_of_elev_r	axial_rot_r	elbow_flexion_r	pro_sup_r	wrist_flex_r	wrist_dev_r	clav_prot_l	clav_elev_l	scapula_abduction_l	scapula_elevation_l	scapula_upward_rot_l	scapula_winging_l	shoulder_elv_l	plane_of_elev_l	axial_rot_l	elbow_flexion_l	pro_sup_l	wrist_flex_l	wrist_dev_l	
7.0300	39.362048	0.976525	6.403741	-186.981624	898.700037	-7.449241	-1.304969	41.512432	45.000000	45.000000	27.837707	2044.696482	-2452.095869	18.883286	-180.000000	1086.406003	-55.386485	22.177962	10.072955	13.390819	-45.000000	-42.340045	45.000000	-35.963577	-1341.243661	-1171.777713	141.436829	148.723607	12.866423	406.860699	6.208688	-23.386097	
7.0400	39.320033	0.804339	6.012068	-184.077469	900.042327	-7.409310	-1.617964	41.319346	45.000000	45.000000	29.343289	2044.626192	-2451.868346	18.964822	-180.000000	1086.395466	-55.831877	22.210873	10.215002	13.375580	-45.000000	-42.898584	45.000000	-34.483571	-1341.208084	-1171.611024	141.351504	149.185970	12.776998	405.962942	6.315789	-23.407233	
7.0500	39.273405	0.647105	5.646402	-181.050271	901.176429	-7.350683	-1.917634	41.131861	45.000000	45.000000	30.794223	2044.555192	-2451.672026	19.053972	-180.000000	1086.384059	-56.408472	22.242230	10.365925	13.327657	-45.000000	-43.429066	45.000000	-33.034270	-1341.196041	-1171.456154	141.263532	149.635122	12.664406	404.830394	6.460767	-23.424036	
7.0600	39.222256	0.515965	5.334019	-177.901235	902.081794	-7.269914	-2.153169	40.964900	45.000000	45.000000	32.085517	2044.503538	-2451.541933	19.157868	-180.000000	1086.362499	-57.094628	22.280915	10.511514	13.250963	-45.000000	-43.905747	45.000000	-31.682774	-1341.203057	-1171.315860	141.154102	150.067554	12.526183	403.468690	6.635163	-23.426288	
7.0700	39.163581	0.430137	5.100184	-174.632766	902.740629	-7.164236	-2.319193	40.831443	45.000000	45.000000	33.163494	2044.476655	-2451.485998	19.279940	-180.000000	1086.333404	-57.892310	22.336423	10.645694	13.130068	-45.000000	-44.307203	45.000000	-30.468956	-1341.241478	-1171.189677	141.028603	150.480834	12.361118	401.887711	6.838785	-23.409968	
7.0800	39.096334	0.320669	4.868503	-171.248199	903.137812	-7.031388	-2.469725	40.685964	45.000000	44.999999	34.304396	2044.454095	-2451.437402	19.377975	-180.000000	1086.313160	-58.816904	22.350495	10.808941	12.976602	-45.000000	-44.612301	45.000000	-29.270882	-1341.350711	-1171.076553	140.918850	150.883765	12.167923	400.063112	7.101927	-23.391020	
7.0900	39.017069	0.170545	4.611652	-167.751714	903.260931	-6.869355	-2.665607	40.512416	45.000000	44.999999	35.629401	2044.416401	-2451.357001	19.441404	-180.000000	1086.321985	-59.866863	22.314149	11.012916	12.781558	-45.000000	-44.819594	45.000000	-28.033536	-1341.552419	-1170.977437	140.847884	151.261942	11.938484	397.954591	7.445472	-23.373324	
7.1000	38.927514	-0.044075	4.301759	-164.148021	903.100166	-6.676099	-2.916558	40.298747	45.000000	44.999998	37.214661	2044.355289	-2451.229778	19.456809	-180.000000	1086.356708	-61.031909	22.210404	11.262702	12.559955	-45.000000	-44.937312	45.000000	-26.725656	-1341.849304	-1170.901329	140.820482	151.607748	11.676748	395.532914	7.879116	-23.355945	
7.1100	38.825845	-0.277003	3.984401	-160.442398	902.648230	-6.449411	-3.263920	40.065388	45.000000	44.999996	38.911364	2044.265972	-2451.088481	19.455184	-180.000000	1086.419604	-62.292218	22.079297	11.530876	12.274511	-45.000000	-44.986578	45.000000	-25.401886	-1342.209431	-1170.863359	140.820335	151.898598	11.378230	392.788353	8.391961	-23.318793	
7.1200	38.713047	-0.536679	3.643994	-156.640298	901.900145	-6.186870	-3.699219	39.805207	45.000000	44.999994	40.730333	2044.141582	-2450.937961	19.430149	-180.000000	1086.500969	-63.643088	21.904468	11.819436	11.948917	-45.000000	-45.000000	45.000000	-24.041650	-1342.620450	-1170.876064	140.850563	152.139334	11.055251	389.744513	8.980848	-23.257089	
7.1300	38.590915	-0.744929	3.370349	-152.747522	900.852948	-5.885989	-4.100716	39.582865	45.000000	44.999988	42.338502	2044.029662	-2450.852580	19.409191	-180.000000	1086.585634	-65.078290	21.744983	12.085884	11.613860	-45.000000	-45.000000	45.000000	-22.805552	-1343.026518	-1170.949711	140.860624	152.323769	10.710485	386.510410	9.594776	-23.148804	
7.1400	38.458335	-0.867372	3.206852	-148.770187	899.505322	-5.544511	-4.421417	39.417371	45.000000	44.999979	43.539865	2043.945657	-2450.899083	19.403797	-180.000000	1086.646927	-66.617634	21.602582	12.316415	11.288705	-45.000000	-45.000000	45.000000	-21.763919	-1343.429513	-1171.081826	140.865944	152.472863	10.371895	383.242082	10.201862	-22.982869	
7.1500	38.316050	-0.881247	3.180096	-144.714883	897.857104	-5.160749	-4.649512	39.325842	45.000000	44.999963	44.241202	2043.904587	-2451.098207	19.416599	-180.000000	1086.683919	-68.283955	21.492827	12.503675	10.977349	-45.000000	-45.000000	45.000000	-20.956999	-1343.818555	-1171.268240	140.857232	152.595932	10.048105	380.097726	10.769950	-22.760509	
7.1600	38.163116	-0.848695	3.211017	-140.588206	895.908841	-4.733826	-4.875918	39.260774	45.000000	44.999934	44.686917	2043.867889	-2451.401009	19.421636	-180.000000	1086.707081	-70.101694	21.365942	12.682271	10.685788	-45.000000	-45.000000	45.000000	-20.254218	-1344.238005	-1171.493114	140.880261	152.712435	9.755745	377.176033	11.312730	-22.504077	
7.1700	38.005935	-0.776948	3.288152	-136.397066	893.661769	-4.263818	-5.039667	39.233164	45.000000	44.999881	44.916246	2043.850604	-2451.783086	19.403620	-180.000000	1086.723348	-72.068377	21.225757	12.853309	10.444310	-45.000000	-45.000000	45.000000	-19.669555	-1344.670560	-1171.752929	140.903212	152.824758	9.492224	374.556466	11.805496	-22.225669	
7.1800	37.844988	-0.673760	3.396558	-132.148320	891.117971	-3.751666	-5.197122	39.225740	45.000000	44.999788	44.988628	2043.822882	-2452.235426	19.371714	-180.000000	1086.736337	-74.164955	21.061614	13.019853	10.223526	-45.000000	-45.000000	45.000000	-19.184379	-1345.136392	-1172.037330	140.947201	152.943154	9.267228	372.267882	12.248889	-21.929581	
7.1900	37.687293	-0.555164	3.516586	-127.848355	888.280918	-3.198926	-5.345767	39.234181	45.000000	44.999620	45.000000	2043.777985	-2452.722008	19.321994	-180.000000	1086.763316	-76.369166	20.876391	13.184163	10.020095	-45.000000	-45.000000	45.000000	-18.782698	-1345.612098	-1172.357079	140.978522	153.081324	9.065657	370.303274	12.638004	-21.624384	
7.2000	37.536537	-0.426710	3.635757	-123.502645	885.156370	-2.607514	-5.484586	39.254358	45.000000	44.999319	45.000000	2043.705025	-2453.227153	19.256387	-180.000000	1086.811318	-78.645821	20.665806	13.346633	9.835078	-45.000000	-45.000000	45.000000	-18.469635	-1346.109008	-1172.704891	140.996983	153.257721	8.885037	368.641335	12.980075	-21.314357	
7.2100	37.399351	-0.292909	3.751075	-119.115761	881.753603	-1.979618	-5.578650	39.290656	45.000000	44.998779	45.000000	2043.614770	-2453.742705	19.168785	-180.000000	1086.882402	-80.967202	20.433006	13.503068	9.690458	-45.000000	-45.000000	45.000000	-18.248306	-1346.611739	-1173.090870	140.980448	153.488065	8.710754	367.275225	13.271161	-21.005131	
7.2200	37.274763	-0.148619	3.866851	-114.691533	878.086623	-1.317821	-5.673844	39.329532	45.000000	44.997814	45.000000	2043.492671	-2454.275601	19.067700	-180.000000	1086.976014	-83.284031	20.172165	13.650355	9.565061	-45.000000	-45.000000	45.000000	-18.114767	-1347.144427	-1173.504380	140.956828	153.786426	8.543558	366.188146	13.520556	-20.696209	
7.2300	37.164272	0.002039	3.980719	-110.233562	874.175178	-0.625368	-5.789152	39.365907	45.000000	44.996084	45.000000	2043.339604	-2454.828994	18.949939	-180.000000	1087.083968	-85.551115	19.889286	13.780222	9.448155	-45.000000	-45.000000	45.000000	-18.049326	-1347.698096	-1173.947374	140.919743	154.149682	8.375017	365.364933	13.730751	-20.390355	
7.2400	37.069747	0.157245	4.088809	-105.746279	870.045521	0.093552	-5.913775	39.404233	45.000000	44.992984	45.000000	2043.160470	-2455.400326	18.815180	-180.000000	1087.200024	-87.706861	19.593528	13.884959	9.342353	-45.000000	-45.000000	45.000000	-18.057350	-1348.275668	-1174.406880	140.866851	154.570689	8.209417	364.801562	13.902454	-20.095066	
7.2500	36.991506	0.315705	4.193831	-101.236431	865.730777	0.833665	-6.055881	39.442028	45.000000	44.987433	45.000000	2042.958130	-2455.988650	18.662311	-180.000000	1087.315396	-89.686170	19.293197	13.956424	9.240258	-45.000000	-45.000000	45.000000	-18.122162	-1348.872550	-1174.880568	140.800071	155.034067	8.043763	364.503003	14.031456	-19.816530	
7.2600	36.929506	0.482339	4.299154	-96.714644	861.270839	1.588709	-6.186260	39.483863	45.000000	44.977489	45.000000	2042.740867	-2456.582735	18.487396	-180.000000	1087.421625	-91.397309	18.998885	13.986699	9.153177	-45.000000	-45.000000	45.000000	-18.253445	-1349.495053	-1175.355149	140.724406	155.535558	7.884977	364.485769	14.110376	-19.565973	
7.2700	36.882730	0.665586	4.415354	-92.196450	856.711359	2.351807	-6.284678	39.541218	45.000000	44.959677	45.000000	2042.521771	-2457.166394	18.280852	-180.000000	1087.507347	-92.750930	18.723656	13.967514	9.083898	-45.000000	-45.000000	45.000000	-18.474769	-1350.140774	-1175.811519	140.636209	156.049476	7.740727	364.758972	14.131335	-19.352814	
7.2800	36.849735	0.852251	4.527457	-87.703416	852.102488	3.115809	-6.368000	39.592732	45.000000	44.927767	45.000000	2042.298834	-2457.744587	18.058378	-180.000000	1087.565990	-93.666195	18.474942	13.894241	9.024022	-45.000000	-45.000000	45.000000	-18.734747	-1350.804763	-1176.254723	140.542084	156.585205	7.608432	365.333454	14.093801	-19.181537	
7.2900	36.828235	1.036216	4.633102	-83.263251	847.496868	3.873568	-6.449197	39.629815	45.000000	44.870619	45.000000	2042.079257	-2458.312856	17.829676	-180.000000	1087.586542	-94.084613	18.262068	13.762858	8.959999	-45.000000	-45.000000	45.000000	-18.998183	-1351.475307	-1176.685064	140.445782	157.123715	7.482452	366.220838	13.993316	-19.054375	
7.3000	36.812095	1.201227	4.716931	-78.909596	842.947604	4.617925	-6.556142	39.620317	45.000000	44.768218	45.000000	2041.868700	-2458.871667	17.614925	-180.000000	1087.565016	-93.970770	18.087613	13.573462	8.876850	-45.000000	-45.000000	45.000000	-19.200561	-1352.136813	-1177.109495	140.352251	157.668727	7.357459	367.424873	13.831578	-18.969932	
7.3100	36.788607	1.356855	4.797885	-74.680887	838.506022	5.341619	-6.622692	39.564250	45.000000	44.584877	45.000000	2041.715970	-2459.381846	17.395207	-180.000000	1087.490342	-93.332110	17.954763	13.326540	8.784208	-45.000000	-45.000000	45.000000	-19.375746	-1352.779148	-1177.494117	140.265186	158.177487	7.245002	368.923805	13.609322	-18.929541	
7.3200	36.749168	1.485470	4.859934	-70.618793	834.219719	6.037056	-6.684952	39.415547	45.000000	44.293850	45.000000	2041.629784	-2459.842185	17.196480	-180.000000	1087.370068	-92.204347	17.851428	13.029504	8.670719	-45.000000	-45.000000	45.000000	-19.467970	-1353.384692	-1177.844636	140.187259	158.669853	7.140432	370.677980	13.337879	-18.923688	
7.3300	36.691470	1.587325	4.910511	-66.766271	830.130988	6.696378	-6.737773	39.178985	45.000000	43.889379	45.000000	2041.618390	-2460.242787	17.021188	-180.000000	1087.204382	-90.632254	17.782739	12.689534	8.547324	-45.000000	-45.000000	45.000000	-19.508877	-1353.934378	-1178.147024	140.103446	159.146099	7.044632	372.642593	13.026647	-18.945597	
7.3400	36.620689	1.663729	4.947779	-63.165495	826.275792	7.311588	-6.798375	38.861378	45.000000	43.389949	45.000000	2041.668198	-2460.583376	16.877357	-180.000000	1087.006797	-88.683975	17.733289	12.318580	8.422305	-45.000000	-45.000000	45.000000	-19.512398	-1354.425725	-1178.404824	140.009932	159.637964	6.955966	374.749486	12.689584	-18.985494	
7.3500	36.543014	1.727307	4.983196	-59.855010	822.682462	7.875074	-6.833373	38.511920	45.000000	42.826650	45.000000	2041.773775	-2460.854484	16.746994	-180.000000	1086.785452	-86.459702	17.701297	11.929608	8.315866	-45.000000	-45.000000	45.000000	-19.538047	-1354.856805	-1178.603422	139.894090	160.150921	6.876186	376.913951	12.343742	-19.036855	
7.3600	36.471250	1.782766	5.014170	-56.867582	819.371227	8.379785	-6.862354	38.159791	45.000000	42.243666	45.000000	2041.907471	-2461.062735	16.632881	-180.000000	1086.561699	-84.103599	17.662488	11.541363	8.228002	-45.000000	-45.000000	45.000000	-19.570727	-1355.234641	-1178.767423	139.769038	160.714809	6.798321	379.032640	12.003204	-19.088703	
